<mxfile host="app.diagrams.net" agent="Mozilla/5.0 (Windows NT 10.0; Win64; x64) AppleWebKit/537.36 (KHTML, like Gecko) Chrome/140.0.0.0 Safari/537.36" version="28.2.3">
  <diagram name="Trang-1" id="4_hYlEVjMIbzq2U6Y5qL">
    <mxGraphModel grid="1" page="1" gridSize="10" guides="1" tooltips="1" connect="1" arrows="1" fold="1" pageScale="1" pageWidth="827" pageHeight="1169" math="0" shadow="0">
      <root>
        <mxCell id="0" />
        <mxCell id="1" parent="0" />
        <mxCell id="Z4nO7uOFSON64xjaIgzX-2" style="edgeStyle=orthogonalEdgeStyle;rounded=0;orthogonalLoop=1;jettySize=auto;html=1;entryX=0.5;entryY=0;entryDx=0;entryDy=0;" edge="1" parent="1" source="Z4nO7uOFSON64xjaIgzX-1" target="Z4nO7uOFSON64xjaIgzX-3">
          <mxGeometry relative="1" as="geometry">
            <mxPoint x="415" y="200" as="targetPoint" />
          </mxGeometry>
        </mxCell>
        <mxCell id="Z4nO7uOFSON64xjaIgzX-1" value="bắt đầu" style="ellipse;whiteSpace=wrap;html=1;" vertex="1" parent="1">
          <mxGeometry x="330" y="70" width="170" height="80" as="geometry" />
        </mxCell>
        <mxCell id="Z4nO7uOFSON64xjaIgzX-5" style="edgeStyle=orthogonalEdgeStyle;rounded=0;orthogonalLoop=1;jettySize=auto;html=1;" edge="1" parent="1" source="Z4nO7uOFSON64xjaIgzX-3">
          <mxGeometry relative="1" as="geometry">
            <mxPoint x="414" y="330" as="targetPoint" />
          </mxGeometry>
        </mxCell>
        <mxCell id="Z4nO7uOFSON64xjaIgzX-3" value="tìm kiếm món đồ" style="shape=parallelogram;perimeter=parallelogramPerimeter;whiteSpace=wrap;html=1;fixedSize=1;" vertex="1" parent="1">
          <mxGeometry x="314" y="210" width="200" height="60" as="geometry" />
        </mxCell>
        <mxCell id="Z4nO7uOFSON64xjaIgzX-6" value="món đồ có trong cửa hàng không ?" style="rhombus;whiteSpace=wrap;html=1;" vertex="1" parent="1">
          <mxGeometry x="240" y="330" width="350" height="80" as="geometry" />
        </mxCell>
        <mxCell id="Z4nO7uOFSON64xjaIgzX-9" value="có" style="endArrow=classic;html=1;rounded=0;exitX=0.417;exitY=0.978;exitDx=0;exitDy=0;exitPerimeter=0;" edge="1" parent="1" source="Z4nO7uOFSON64xjaIgzX-6">
          <mxGeometry width="50" height="50" relative="1" as="geometry">
            <mxPoint x="350" y="400" as="sourcePoint" />
            <mxPoint x="240" y="520" as="targetPoint" />
          </mxGeometry>
        </mxCell>
        <mxCell id="Z4nO7uOFSON64xjaIgzX-10" value="không" style="endArrow=classic;html=1;rounded=0;exitX=0.575;exitY=0.978;exitDx=0;exitDy=0;exitPerimeter=0;" edge="1" parent="1" source="Z4nO7uOFSON64xjaIgzX-6">
          <mxGeometry width="50" height="50" relative="1" as="geometry">
            <mxPoint x="400" y="550" as="sourcePoint" />
            <mxPoint x="570" y="510" as="targetPoint" />
          </mxGeometry>
        </mxCell>
        <mxCell id="Z4nO7uOFSON64xjaIgzX-11" value="mua món đồ" style="rounded=0;whiteSpace=wrap;html=1;" vertex="1" parent="1">
          <mxGeometry x="150" y="520" width="170" height="60" as="geometry" />
        </mxCell>
        <mxCell id="Z4nO7uOFSON64xjaIgzX-12" value="hỏi nhân viên" style="shape=parallelogram;perimeter=parallelogramPerimeter;whiteSpace=wrap;html=1;fixedSize=1;" vertex="1" parent="1">
          <mxGeometry x="460" y="510" width="200" height="60" as="geometry" />
        </mxCell>
        <mxCell id="Z4nO7uOFSON64xjaIgzX-13" value="rời đi ( kết thúc )" style="ellipse;whiteSpace=wrap;html=1;" vertex="1" parent="1">
          <mxGeometry x="314" y="670" width="170" height="80" as="geometry" />
        </mxCell>
        <mxCell id="Z4nO7uOFSON64xjaIgzX-15" value="" style="endArrow=classic;html=1;rounded=0;entryX=0.5;entryY=0;entryDx=0;entryDy=0;exitX=0.645;exitY=1.017;exitDx=0;exitDy=0;exitPerimeter=0;" edge="1" parent="1" source="Z4nO7uOFSON64xjaIgzX-11" target="Z4nO7uOFSON64xjaIgzX-13">
          <mxGeometry width="50" height="50" relative="1" as="geometry">
            <mxPoint x="270" y="590" as="sourcePoint" />
            <mxPoint x="450" y="700" as="targetPoint" />
          </mxGeometry>
        </mxCell>
        <mxCell id="Z4nO7uOFSON64xjaIgzX-16" value="" style="endArrow=classic;html=1;rounded=0;exitX=0.5;exitY=1;exitDx=0;exitDy=0;entryX=0.5;entryY=0;entryDx=0;entryDy=0;" edge="1" parent="1" source="Z4nO7uOFSON64xjaIgzX-12" target="Z4nO7uOFSON64xjaIgzX-13">
          <mxGeometry width="50" height="50" relative="1" as="geometry">
            <mxPoint x="400" y="750" as="sourcePoint" />
            <mxPoint x="450" y="700" as="targetPoint" />
          </mxGeometry>
        </mxCell>
      </root>
    </mxGraphModel>
  </diagram>
</mxfile>
